<svg width="1400" height="900" viewBox="0 0 1400 900" fill="none" xmlns="http://www.w3.org/2000/svg">
  <rect width="1400" height="900" rx="40" fill="#071019"/>
  <rect x="1" y="1" width="1398" height="898" rx="39" stroke="#1C3141" stroke-width="2"/>
  <circle cx="200" cy="160" r="220" fill="url(#glowA)" opacity="0.35"/>
  <circle cx="1160" cy="760" r="250" fill="url(#glowB)" opacity="0.28"/>
  <rect x="84" y="78" width="1232" height="744" rx="30" fill="#0C1721" stroke="#1F3446" stroke-width="2"/>
  <text x="132" y="154" fill="#E8F3FB" font-family="Arial, sans-serif" font-size="44" font-weight="700">Research Radar</text>
  <text x="132" y="194" fill="#8FB1C7" font-family="Arial, sans-serif" font-size="22">A prototype for finding MIR and audio ML papers</text>

  <rect x="132" y="232" width="176" height="38" rx="19" fill="#123247"/>
  <text x="164" y="256" fill="#8EDBFF" font-family="Arial, sans-serif" font-size="18" font-weight="700">Emerging</text>
  <rect x="322" y="232" width="152" height="38" rx="19" fill="#2A233D"/>
  <text x="360" y="256" fill="#C9BAFF" font-family="Arial, sans-serif" font-size="18" font-weight="700">Bridge</text>
  <rect x="488" y="232" width="178" height="38" rx="19" fill="#1F2E1E"/>
  <text x="520" y="256" fill="#A8E3B3" font-family="Arial, sans-serif" font-size="18" font-weight="700">Undercited</text>

  <rect x="132" y="310" width="570" height="430" rx="24" fill="#0F1E2A" stroke="#274257" stroke-width="2"/>
  <circle cx="164" cy="340" r="6" fill="#FF6B6B"/>
  <circle cx="186" cy="340" r="6" fill="#FFD166"/>
  <circle cx="208" cy="340" r="6" fill="#7EE787"/>
  <text x="236" y="347" fill="#AAC2D4" font-family="Arial, sans-serif" font-size="18">Ranked recommendations</text>

  <rect x="164" y="382" width="506" height="86" rx="18" fill="#122737"/>
  <text x="190" y="415" fill="#EDF7FF" font-family="Arial, sans-serif" font-size="24" font-weight="700">Emerging feed</text>
  <text x="190" y="444" fill="#8FB1C7" font-family="Arial, sans-serif" font-size="16">Why it ranked: citation velocity,</text>
  <text x="190" y="465" fill="#8FB1C7" font-family="Arial, sans-serif" font-size="16">topic growth, final score</text>

  <rect x="164" y="490" width="506" height="96" rx="18" fill="#122737"/>
  <text x="190" y="523" fill="#EDF7FF" font-family="Arial, sans-serif" font-size="24" font-weight="700">Paper detail + similar papers</text>
  <text x="190" y="552" fill="#8FB1C7" font-family="Arial, sans-serif" font-size="16">Related papers help people move from one</text>
  <text x="190" y="573" fill="#8FB1C7" font-family="Arial, sans-serif" font-size="16">useful result to the next</text>

  <rect x="164" y="608" width="506" height="110" rx="18" fill="#122737"/>
  <text x="190" y="631" fill="#EDF7FF" font-family="Arial, sans-serif" font-size="24" font-weight="700">Review guardrails</text>
  <text x="190" y="659" fill="#8FB1C7" font-family="Arial, sans-serif" font-size="16">Bridge stays experimental, semantic ranking</text>
  <text x="190" y="680" fill="#8FB1C7" font-family="Arial, sans-serif" font-size="16">is labelled when used, and evaluation</text>
  <text x="190" y="701" fill="#8FB1C7" font-family="Arial, sans-serif" font-size="16">makes ranking behavior inspectable.</text>

  <rect x="734" y="310" width="250" height="205" rx="24" fill="#0F1E2A" stroke="#274257" stroke-width="2"/>
  <text x="764" y="352" fill="#EDF7FF" font-family="Arial, sans-serif" font-size="24" font-weight="700">Trends</text>
  <rect x="764" y="385" width="36" height="86" rx="12" fill="#6FD0FF"/>
  <rect x="818" y="410" width="36" height="61" rx="12" fill="#7B9CFF"/>
  <rect x="872" y="366" width="36" height="105" rx="12" fill="#9FE0AE"/>
  <rect x="926" y="396" width="36" height="75" rx="12" fill="#D4B8FF"/>
  <text x="764" y="495" fill="#8FB1C7" font-family="Arial, sans-serif" font-size="16">Topic momentum in the</text>
  <text x="764" y="516" fill="#8FB1C7" font-family="Arial, sans-serif" font-size="16">current dataset</text>

  <rect x="1016" y="310" width="268" height="205" rx="24" fill="#0F1E2A" stroke="#274257" stroke-width="2"/>
  <text x="1046" y="352" fill="#EDF7FF" font-family="Arial, sans-serif" font-size="24" font-weight="700">Evaluation</text>
  <rect x="1046" y="386" width="206" height="18" rx="9" fill="#163247"/>
  <rect x="1046" y="420" width="164" height="18" rx="9" fill="#2B3951"/>
  <rect x="1046" y="454" width="186" height="18" rx="9" fill="#223844"/>
  <text x="1046" y="495" fill="#8FB1C7" font-family="Arial, sans-serif" font-size="16">Compared with citation</text>
  <text x="1046" y="516" fill="#8FB1C7" font-family="Arial, sans-serif" font-size="16">and recency baselines</text>

  <rect x="734" y="545" width="550" height="163" rx="24" fill="#0F1E2A" stroke="#274257" stroke-width="2"/>
  <text x="764" y="587" fill="#EDF7FF" font-family="Arial, sans-serif" font-size="24" font-weight="700">What is stable today</text>
  <text x="764" y="621" fill="#8FB1C7" font-family="Arial, sans-serif" font-size="16">Stable: explainable ranked feeds with</text>
  <text x="764" y="642" fill="#8FB1C7" font-family="Arial, sans-serif" font-size="16">visible signal breakdowns</text>
  <text x="764" y="667" fill="#8FB1C7" font-family="Arial, sans-serif" font-size="16">Experimental: bridge view is visible and</text>
  <text x="764" y="688" fill="#8FB1C7" font-family="Arial, sans-serif" font-size="16">separate from the default feed</text>

  <rect x="764" y="737" width="112" height="34" rx="17" fill="#163247"/>
  <text x="792" y="759" fill="#8EDBFF" font-family="Arial, sans-serif" font-size="16" font-weight="700">Next.js</text>
  <rect x="890" y="737" width="114" height="34" rx="17" fill="#223844"/>
  <text x="918" y="759" fill="#D2E6F4" font-family="Arial, sans-serif" font-size="16" font-weight="700">FastAPI</text>
  <rect x="1018" y="737" width="126" height="34" rx="17" fill="#1F2E1E"/>
  <text x="1046" y="759" fill="#A8E3B3" font-family="Arial, sans-serif" font-size="16" font-weight="700">pgvector</text>
  <rect x="1158" y="737" width="94" height="34" rx="17" fill="#2A233D"/>
  <text x="1186" y="759" fill="#C9BAFF" font-family="Arial, sans-serif" font-size="16" font-weight="700">Python</text>

  <defs>
    <radialGradient id="glowA" cx="0" cy="0" r="1" gradientUnits="userSpaceOnUse" gradientTransform="translate(200 160) rotate(90) scale(220)">
      <stop stop-color="#2EC5FF"/>
      <stop offset="1" stop-color="#2EC5FF" stop-opacity="0"/>
    </radialGradient>
    <radialGradient id="glowB" cx="0" cy="0" r="1" gradientUnits="userSpaceOnUse" gradientTransform="translate(1160 760) rotate(90) scale(250)">
      <stop stop-color="#8F6BFF"/>
      <stop offset="1" stop-color="#8F6BFF" stop-opacity="0"/>
    </radialGradient>
  </defs>
</svg>
